<?xml version="1.0" encoding="utf-8"?>
<!-- Generator: Adobe Illustrator 27.6.1, SVG Export Plug-In . SVG Version: 6.00 Build 0)  -->
<svg version="1.1" id="Layer_1" xmlns="http://www.w3.org/2000/svg" xmlns:xlink="http://www.w3.org/1999/xlink" x="0px" y="0px"
	 viewBox="0 0 512 460.8" style="enable-background:new 0 0 512 460.8;" xml:space="preserve">
<style type="text/css">
	.st0{fill:none;stroke:#231F20;stroke-width:3;stroke-miterlimit:10;}
	.st1{fill:#231F20;}
	.st2{fill:#004EBC;}
	.st3{fill:#00B451;}
	.st4{fill:#686A74;}
	.st5{fill:none;}
</style>
<g>
	<g>
		<circle class="st2" cx="198.5" cy="82.9" r="28.1"/>
		<circle class="st2" cx="313.5" cy="82.9" r="28.1"/>
		<g>
			<circle class="st3" cx="256" cy="28.7" r="28.1"/>
		</g>
		<g>
			<circle class="st3" cx="141" cy="137.2" r="28.1"/>
		</g>
		<g>
			<circle class="st3" cx="371" cy="137.2" r="28.1"/>
		</g>
		<g>
			<path class="st3" d="M261.1,284.9v31.6c0,11,4.2,21.8,12.2,29.3c5,4.7,8.2,11.3,8.2,18.8s-3.2,14.1-8.2,18.8
				c-8.1,7.5-12.2,18.3-12.2,29.3l0,47.8h-10.2l0-47.8c0-11-4.2-21.8-12.2-29.3c-5-4.7-8.2-11.3-8.2-18.8s3.2-14.1,8.2-18.8
				c8.1-7.5,12.2-18.3,12.2-29.3v-31.6c0-11-4.2-21.8-12.2-29.3c-5-4.7-8.2-11.3-8.2-18.8c0-7.4,3.2-14.1,8.2-18.8
				c8.1-7.5,12.2-18.3,12.2-29.3v-12.5c0-11-4.2-21.8-12.2-29.3c-5-4.7-8.2-11.3-8.2-18.8c0-14.1,11.4-25.5,25.6-25.5
				c14.1,0,25.6,11.4,25.6,25.5c0,7.4-3.2,14.1-8.2,18.8c-8.1,7.5-12.2,18.3-12.2,29.3v12.5c0,11,4.2,21.8,12.2,29.3
				c5,4.7,8.2,11.3,8.2,18.8c0,7.4-3.2,14.1-8.2,18.8C265.3,263.1,261.1,273.9,261.1,284.9z"/>
		</g>
		<path class="st2" d="M203.6,339.2l0,121.2h-10.2l0-121.2c0-11-4.2-21.8-12.2-29.3c-5-4.7-8.2-11.3-8.2-18.8s3.2-14.1,8.2-18.8
			c8.1-7.5,12.2-18.3,12.2-29.3v-12.5c0-11-4.2-21.8-12.2-29.3c-5-4.7-8.2-11.3-8.2-18.8c0-14.1,11.4-25.5,25.6-25.5
			c14.1,0,25.6,11.4,25.6,25.5c0,7.4-3.2,14.1-8.2,18.8c-8.1,7.5-12.2,18.3-12.2,29.3v12.5c0,11,4.2,21.8,12.2,29.3
			c5,4.7,8.2,11.3,8.2,18.8s-3.2,14.1-8.2,18.8C207.8,317.4,203.6,328.2,203.6,339.2z"/>
		<g>
			<path class="st3" d="M146.1,393.5l0,66.9h-10.2l0-66.9c0-11-4.2-21.8-12.2-29.3c-5-4.7-8.2-11.3-8.2-18.8s3.2-14.1,8.2-18.8
				c8.1-7.5,12.2-18.3,12.2-29.3v-12.5c0-11-4.2-21.8-12.2-29.3c-5-4.7-8.2-11.3-8.2-18.8c0-14.1,11.4-25.5,25.6-25.5
				c14.1,0,25.6,11.4,25.6,25.5c0,7.4-3.2,14.1-8.2,18.8c-8.1,7.5-12.2,18.3-12.2,29.3v12.5c0,11,4.2,21.8,12.2,29.3
				c5,4.7,8.2,11.3,8.2,18.8s-3.2,14.1-8.2,18.8C150.3,371.7,146.1,382.5,146.1,393.5z"/>
		</g>
		<path class="st2" d="M88.6,339.2l0,121.2H78.4l0-121.2c0-11-4.2-21.8-12.2-29.3c-5-4.7-8.2-11.3-8.2-18.8s3.2-14.1,8.2-18.8
			c8.1-7.5,12.2-18.3,12.2-29.3v-12.5c0-11-4.2-21.8-12.2-29.3c-5-4.7-8.2-11.3-8.2-18.8c0-14.1,11.4-25.5,25.6-25.5
			c14.1,0,25.6,11.4,25.6,25.5c0,7.4-3.2,14.1-8.2,18.8c-8.1,7.5-12.2,18.3-12.2,29.3v12.5c0,11,4.2,21.8,12.2,29.3
			c5,4.7,8.2,11.3,8.2,18.8s-3.2,14.1-8.2,18.8C92.8,317.4,88.6,328.2,88.6,339.2z"/>
		<g>
			<path class="st3" d="M31.2,460.5H20.9l0-175.5c0-11-4.2-21.8-12.2-29.3c-5-4.7-8.2-11.3-8.2-18.8c0-14.1,11.4-25.5,25.6-25.5
				c14.1,0,25.6,11.4,25.6,25.5c0,7.4-3.2,14.1-8.2,18.8c-8.1,7.5-12.2,18.3-12.2,29.3L31.2,460.5z"/>
		</g>
		<path class="st2" d="M296.1,309.9c-5-4.7-8.2-11.3-8.2-18.8s3.2-14.1,8.2-18.8c8.1-7.5,12.2-18.3,12.2-29.3v-12.5
			c0-11-4.2-21.8-12.2-29.3c-5-4.7-8.2-11.3-8.2-18.8c0-14.1,11.4-25.5,25.6-25.5c14.1,0,25.6,11.4,25.6,25.5
			c0,7.4-3.2,14.1-8.2,18.8c-8.1,7.5-12.2,18.3-12.2,29.3v12.5c0,11,4.2,21.8,12.2,29.3c5,4.7,8.2,11.3,8.2,18.8s-3.2,14.1-8.2,18.8
			c-8.1,7.5-12.2,18.3-12.2,29.3v121.2h-10.2V339.2C308.4,328.2,304.2,317.4,296.1,309.9z"/>
		<g>
			<path class="st3" d="M353.6,364.2c-5-4.7-8.2-11.3-8.2-18.8s3.2-14.1,8.2-18.8c8.1-7.5,12.2-18.3,12.2-29.3v-12.5
				c0-11-4.2-21.8-12.2-29.3c-5-4.7-8.2-11.3-8.2-18.8c0-14.1,11.4-25.5,25.6-25.5c14.1,0,25.6,11.4,25.6,25.5
				c0,7.4-3.2,14.1-8.2,18.8c-8.1,7.5-12.2,18.3-12.2,29.3v12.5c0,11,4.2,21.8,12.2,29.3c5,4.7,8.2,11.3,8.2,18.8
				s-3.2,14.1-8.2,18.8c-8.1,7.5-12.2,18.3-12.2,29.3l0,66.9h-10.2l0-66.9C365.9,382.5,361.7,371.7,353.6,364.2z"/>
		</g>
		<path class="st2" d="M411.1,309.9c-5-4.7-8.2-11.3-8.2-18.8s3.2-14.1,8.2-18.8c8.1-7.5,12.2-18.3,12.2-29.3v-12.5
			c0-11-4.2-21.8-12.2-29.3c-5-4.7-8.2-11.3-8.2-18.8c0-14.1,11.4-25.5,25.6-25.5c14.1,0,25.6,11.4,25.6,25.5
			c0,7.4-3.2,14.1-8.2,18.8c-8.1,7.5-12.2,18.3-12.2,29.3v12.5c0,11,4.2,21.8,12.2,29.3c5,4.7,8.2,11.3,8.2,18.8s-3.2,14.1-8.2,18.8
			c-8.1,7.5-12.2,18.3-12.2,29.3v121.2h-10.2l0-121.2C423.4,328.2,419.2,317.4,411.1,309.9z"/>
		<g>
			<path class="st3" d="M480.8,284.9c0-11-4.2-21.8-12.2-29.3c-5-4.7-8.2-11.3-8.2-18.8c0-14.1,11.4-25.5,25.6-25.5
				c14.1,0,25.6,11.4,25.6,25.5c0,7.4-3.2,14.1-8.2,18.8c-8.1,7.5-12.2,18.3-12.2,29.3l0,175.5h-10.2L480.8,284.9z"/>
		</g>
	</g>
</g>
</svg>
